<?xml version="1.0" encoding="iso-8859-1"?><!-- Uploaded to: SVG Repo, www.svgrepo.com, Generator: SVG Repo Mixer Tools -->
<svg fill="#000000" height="800px" width="800px" version="1.1" id="Capa_1"
    xmlns="http://www.w3.org/2000/svg" viewBox="0 0 384.97 384.97" xml:space="preserve">
<g id="Cancel">
        <path d="M273.437,255.897l-63.376-63.388l63.015-62.497c4.752-4.704,4.752-12.319,0-17.011c-4.74-4.692-12.439-4.692-17.179,0
			l-62.931,62.413l-63.869-63.881c-4.74-4.764-12.439-4.764-17.179,0c-4.74,4.752-4.74,12.475,0,17.227l63.773,63.785
			l-64.134,63.604c-4.74,4.704-4.74,12.319,0,17.011c4.74,4.704,12.439,4.704,17.191,0l64.049-63.52l63.472,63.472
			c4.74,4.764,12.439,4.764,17.179,0C278.177,268.372,278.177,260.661,273.437,255.897z" />
	</g>
</svg>