<svg width="375"
    height="352"
    viewBox="0 0 375 352"
    fill="none"
    xmlns="http://www.w3.org/2000/svg">
    <path
        opacity="0.1"
        d="M573.498 371.253C573.498 420.712 533.403 460.806 483.944 460.807H436.381V318.581H573.498V371.253ZM-146.586 117.129L-180.541 161.678H-40.0996L-40.0938 278.085L-177.723 459.342H-318.502L-318.508 342.589L-284.539 297.695H-354.604L-424.994 298.386L-425 181.633L-288.115 0.375977H-146.592L-146.586 117.129ZM327.399 117.259L66.6729 459.293H-74.1074V343.225L185.876 0.505859H327.399V117.259ZM572.837 116.753L312.111 458.788L241.721 459.13H171.331V342.719L431.314 0H572.837V116.753Z"
        fill="#AAAAAA" />
</svg>
